<svg width="387" height="48" viewBox="0 0 387 48" fill="none" xmlns="http://www.w3.org/2000/svg">
    <path
        d="M63.8 7.99999C67.6 7.99999 70.3 8.83333 71.9 10.5C73.1 11.7667 73.7 13.3667 73.7 15.3C73.7 15.9667 73.6333 16.6667 73.5 17.4L73.05 19.8C72.6833 21.7 71.9667 23.1833 70.9 24.25C69.8667 25.3167 68.95 25.85 68.15 25.85L68.1 26.25C69.0333 26.25 69.9833 26.7667 70.95 27.8C71.9167 28.8333 72.4 30.05 72.4 31.45C72.4 32.0167 72.3333 32.6167 72.2 33.25L71.9 34.8C71.3667 37.6667 70.0833 39.9167 68.05 41.55C66.05 43.1833 63.25 44 59.65 44H42.95L49.3 7.99999H63.8ZM59.3 29.3H54.55L53.35 36.2H58.1C58.1667 36.2 58.2333 36.2 58.3 36.2C59.8333 36.2 61.05 35.85 61.95 35.15C62.85 34.4167 63.3 33.5333 63.3 32.5C63.3 30.3667 61.9667 29.3 59.3 29.3ZM60.65 15.8H56.9L55.6 23.25H59.3C62.5 23.25 64.1 21.85 64.1 19.05C64.1 18.0833 63.8 17.3 63.2 16.7C62.6333 16.1 61.7833 15.8 60.65 15.8Z"
        fill="#E2E2E2" />
    <path
        d="M85.7613 36.3C85.7613 37.1667 86.1947 37.6 87.0613 37.6C87.9613 37.6 88.7113 37.4333 89.3113 37.1L89.0613 42.75C87.4613 44.05 85.6613 44.7 83.6613 44.7C80.628 44.7 78.6613 44 77.7613 42.6C77.1947 41.7 76.9113 40.7167 76.9113 39.65C76.9113 38.5833 76.978 37.65 77.1113 36.85L82.5613 6.04999H91.0613L85.8113 35.7C85.778 35.9 85.7613 36.1 85.7613 36.3Z"
        fill="#E2E2E2" />
    <path
        d="M116.378 36.3C116.378 37.1667 116.811 37.6 117.678 37.6C118.578 37.6 119.328 37.4333 119.928 37.1L119.678 42.75C118.078 44.05 116.278 44.7 114.278 44.7C110.611 44.7 108.578 43.3667 108.178 40.7C106.511 43.3667 104.061 44.7 100.828 44.7C95.3615 44.7 92.6281 42.35 92.6281 37.65C92.6281 36.85 92.7115 35.9667 92.8781 35L93.9281 29.15C94.4615 26.15 95.6781 23.7667 97.5781 22C99.5115 20.2 102.011 19.3 105.078 19.3C108.178 19.3 110.278 20.0167 111.378 21.45L111.628 19.95H119.228L116.428 35.7C116.395 35.9 116.378 36.1 116.378 36.3ZM101.578 33.9C101.511 34.2 101.478 34.6167 101.478 35.15C101.478 35.6833 101.728 36.2167 102.228 36.75C102.728 37.25 103.561 37.5 104.728 37.5C105.928 37.5 106.961 37.0333 107.828 36.1L109.328 27.7C108.961 26.8667 108.095 26.45 106.728 26.45C104.161 26.45 102.661 27.6833 102.228 30.15L101.578 33.9Z"
        fill="#E2E2E2" />
    <path
        d="M139.606 28.65C139.606 27.2167 138.906 26.5 137.506 26.5C136.14 26.5 135.006 27.0167 134.106 28.05L131.306 44H122.806L127.056 19.95H134.956L134.406 22.9C136.373 20.4667 138.856 19.25 141.856 19.25C144.856 19.25 146.806 19.9833 147.706 21.45C148.273 22.3833 148.556 23.45 148.556 24.65C148.556 25.85 148.473 26.9667 148.306 28L146.956 35.7C146.923 35.9 146.906 36.0833 146.906 36.25C146.906 37.15 147.406 37.6 148.406 37.6C149.173 37.6 149.856 37.4333 150.456 37.1L150.206 42.75C148.64 44.05 146.856 44.7 144.856 44.7C140.323 44.7 138.056 42.8 138.056 39C138.056 38.3333 138.123 37.6167 138.256 36.85L139.456 30.2C139.556 29.6 139.606 29.0833 139.606 28.65Z"
        fill="#E2E2E2" />
    <path
        d="M177.839 37.6C178.606 37.6 179.289 37.4333 179.889 37.1L179.639 42.75C178.072 44.05 176.156 44.7 173.889 44.7C171.622 44.7 169.939 44.1 168.839 42.9C167.772 41.7 166.939 39.6833 166.339 36.85L166.189 36.15C165.489 36.25 164.439 36.3333 163.039 36.4L161.689 44H153.189L159.889 6.04999H168.389L165.489 22.5C167.456 20.3333 170.122 19.25 173.489 19.25C175.756 19.25 177.422 19.8167 178.489 20.95C179.589 22.05 180.139 23.5333 180.139 25.4C180.139 29 178.256 31.8167 174.489 33.85L175.039 35.7C175.406 36.9667 176.339 37.6 177.839 37.6ZM169.189 26.05C167.389 26.05 165.789 26.9 164.389 28.6L163.839 31.9C168.772 31.7 171.239 30.3833 171.239 27.95C171.239 27.3833 171.056 26.9333 170.689 26.6C170.356 26.2333 169.856 26.05 169.189 26.05Z"
        fill="#E2E2E2" />
    <path
        d="M201.217 33.05H195.267L193.317 44H184.317L190.667 7.99999H205.917C209.684 7.99999 212.367 8.86666 213.967 10.6C215.134 11.9333 215.717 13.6333 215.717 15.7C215.717 16.4 215.651 17.1333 215.517 17.9L214.517 23.55C214.017 26.3167 212.551 28.6 210.117 30.4C207.684 32.1667 204.717 33.05 201.217 33.05ZM202.767 15.8H198.267L196.617 25.25H201.067C203.801 25.25 205.384 24.0333 205.817 21.6L206.167 19.55C206.234 19.25 206.267 18.85 206.267 18.35C206.267 17.85 206.017 17.3 205.517 16.7C205.017 16.1 204.101 15.8 202.767 15.8Z"
        fill="#FFB956" />
    <path
        d="M240.058 36.3C240.058 37.1667 240.491 37.6 241.358 37.6C242.258 37.6 243.008 37.4333 243.608 37.1L243.358 42.75C241.758 44.05 239.958 44.7 237.958 44.7C234.291 44.7 232.258 43.3667 231.858 40.7C230.191 43.3667 227.741 44.7 224.508 44.7C219.041 44.7 216.308 42.35 216.308 37.65C216.308 36.85 216.391 35.9667 216.558 35L217.608 29.15C218.141 26.15 219.358 23.7667 221.258 22C223.191 20.2 225.691 19.3 228.758 19.3C231.858 19.3 233.958 20.0167 235.058 21.45L235.308 19.95H242.908L240.108 35.7C240.074 35.9 240.058 36.1 240.058 36.3ZM225.258 33.9C225.191 34.2 225.158 34.6167 225.158 35.15C225.158 35.6833 225.408 36.2167 225.908 36.75C226.408 37.25 227.241 37.5 228.408 37.5C229.608 37.5 230.641 37.0333 231.508 36.1C232.374 35.1667 233.008 27.7 233.008 27.7C232.641 26.8667 231.774 26.45 230.408 26.45C227.841 26.45 226.341 27.6833 225.908 30.15L225.258 33.9Z"
        fill="#FFB956" />
    <path
        d="M271.436 25.05C271.436 26.1833 271.236 27.2833 270.836 28.35C270.469 29.4167 270.103 30.2 269.736 30.7L269.186 31.4H261.636C262.469 30.6333 262.886 29.6833 262.886 28.55C262.886 27.95 262.686 27.4667 262.286 27.1C261.919 26.7 261.403 26.5 260.736 26.5C259.603 26.5 258.619 27.0667 257.786 28.2L254.986 44H246.486L250.736 19.95H258.636L258.036 23.3C259.936 20.6 262.236 19.25 264.936 19.25C267.103 19.25 268.719 19.7667 269.786 20.8C270.886 21.8333 271.436 23.25 271.436 25.05Z"
        fill="#FFB956" />
    <path
        d="M284.07 44.7C280.203 44.7 277.42 43.8333 275.72 42.1C274.453 40.8333 273.82 39.1333 273.82 37C273.82 36.3 273.886 35.55 274.02 34.75L277.42 15.4L286.57 11.6L285.12 19.95H298.92L297.67 27H283.87L282.87 32.65C282.736 33.2833 282.67 33.85 282.67 34.35C282.67 36.45 283.67 37.5 285.67 37.5C286.736 37.5 287.62 37.05 288.32 36.15C289.053 35.25 289.553 34.05 289.82 32.55H298.12C296.72 40.65 292.036 44.7 284.07 44.7Z"
        fill="#FFB956" />
    <path
        d="M311.861 37.6C312.628 37.6 313.311 37.4333 313.911 37.1L313.661 42.75C312.094 44.05 310.311 44.7 308.311 44.7C305.278 44.7 303.311 44 302.411 42.6C301.811 41.6667 301.511 40.6833 301.511 39.65C301.511 38.5833 301.578 37.65 301.711 36.85L304.711 19.95H313.211L310.411 35.7C310.378 35.9 310.361 36.0833 310.361 36.25C310.361 37.15 310.861 37.6 311.861 37.6ZM305.711 11.8C305.711 9.66666 306.178 8.11666 307.111 7.14999C308.078 6.14999 309.561 5.64999 311.561 5.64999C314.361 5.64999 315.761 6.88333 315.761 9.34999C315.761 11.45 315.278 12.9833 314.311 13.95C313.378 14.9167 311.894 15.4 309.861 15.4C307.094 15.4 305.711 14.2 305.711 11.8Z"
        fill="#FFB956" />
    <path
        d="M327.585 44.7C320.651 44.7 317.185 42.3 317.185 37.5C317.185 36.8333 317.251 36.1167 317.385 35.35L318.435 29.15C318.968 25.95 320.418 23.5 322.785 21.8C325.185 20.1 328.218 19.2333 331.885 19.2C338.985 19.2 342.535 21.6667 342.535 26.6C342.535 27.6667 342.401 28.6333 342.135 29.5C341.901 30.3333 341.651 30.9 341.385 31.2L340.985 31.7H332.485C333.318 30.9667 333.735 30.1 333.735 29.1C333.735 27.3 332.835 26.4 331.035 26.4C329.968 26.4 329.051 26.7167 328.285 27.35C327.518 27.9833 327.018 28.95 326.785 30.25L326.135 33.9C326.068 34.2333 326.035 34.55 326.035 34.85C326.035 36.6167 327.135 37.5 329.335 37.5C330.068 37.5 330.718 37.2667 331.285 36.8C331.885 36.3333 332.235 35.8167 332.335 35.25L340.635 35.35C339.535 41.5833 335.185 44.7 327.585 44.7Z"
        fill="#FFB956" />
    <path
        d="M354.775 36.3C354.775 37.1667 355.208 37.6 356.075 37.6C356.975 37.6 357.725 37.4333 358.325 37.1L358.075 42.75C356.475 44.05 354.675 44.7 352.675 44.7C349.642 44.7 347.675 44 346.775 42.6C346.208 41.7 345.925 40.7167 345.925 39.65C345.925 38.5833 345.992 37.65 346.125 36.85L351.575 6.04999H360.075L354.825 35.7C354.792 35.9 354.775 36.1 354.775 36.3Z"
        fill="#FFB956" />
    <path
        d="M372.042 44.7C365.108 44.7 361.642 42.3 361.642 37.5C361.642 36.8333 361.708 36.1167 361.842 35.35L362.892 29.15C363.458 25.95 364.925 23.5 367.292 21.8C369.692 20.0667 372.858 19.2 376.792 19.2C383.492 19.2 386.842 21.7333 386.842 26.8C386.842 27.5333 386.775 28.3333 386.642 29.2L386.042 32.75H370.792L370.592 33.9C370.525 34.3 370.492 34.6667 370.492 35C370.492 36.8333 371.575 37.75 373.742 37.75C374.542 37.75 375.225 37.5 375.792 37C376.358 36.5 376.692 35.9167 376.792 35.25L385.092 35.35C383.992 41.5833 379.642 44.7 372.042 44.7ZM378.042 29.7C378.175 29.1333 378.242 28.6167 378.242 28.15C378.242 27.65 378.025 27.15 377.592 26.65C377.158 26.15 376.458 25.9 375.492 25.9C374.558 25.9 373.692 26.2167 372.892 26.85C372.125 27.4833 371.592 28.4333 371.292 29.7H378.042Z"
        fill="#FFB956" />
    <path
        d="M11.5901 0.890239L6.50171 9.98241C6.37704 10.2054 6.32015 10.4496 6.33587 10.6944C6.35159 10.9392 6.43948 11.1772 6.59204 11.3883C6.74465 11.5995 6.95743 11.7775 7.21226 11.9071C7.46715 12.0368 7.75665 12.1144 8.0561 12.1333C9.90015 12.257 11.7545 12.0359 13.478 11.4867C15.2015 10.9375 16.7488 10.0747 18.002 8.96396C18.2473 8.74863 18.4107 8.4799 18.4724 8.19029C18.5342 7.90068 18.4916 7.60268 18.35 7.33241C17.2357 5.20985 16.1225 3.06218 15.0082 0.92585C14.3688 -0.291595 12.2633 -0.313428 11.5901 0.890239Z"
        fill="#FFB956" />
    <path
        d="M20.8497 15.7615C20.9874 16.0252 21.0317 16.3155 20.9775 16.599C20.9234 16.8825 20.7731 17.1477 20.5438 17.3642C18.5877 19.2312 16.0832 20.6565 13.268 21.5047C10.4529 22.3531 7.42055 22.5963 4.45888 22.2112C4.17555 22.1751 3.90638 22.0854 3.67232 21.9494C3.43832 21.8133 3.24588 21.6345 3.1101 21.4271C2.97432 21.2196 2.89893 20.9891 2.88982 20.7537C2.88071 20.5183 2.93816 20.2844 3.0576 20.0702C4.1056 18.1862 5.1526 16.3025 6.1986 14.419C6.35466 14.1338 6.61399 13.8952 6.94127 13.7356C7.26849 13.576 7.64771 13.5032 8.02716 13.5272C10.9492 13.7331 13.8625 13.0585 16.2236 11.6295C16.449 11.4932 16.7092 11.4007 16.9844 11.3589C17.2596 11.317 17.5428 11.3268 17.8127 11.3876C18.0826 11.4485 18.3322 11.5587 18.5429 11.7101C18.7535 11.8615 18.9198 12.0501 19.0291 12.2618C19.6376 13.4335 20.2445 14.6001 20.8497 15.7615Z"
        fill="#FFB956" />
    <path
        d="M23.1807 24.8895C23.3178 25.149 23.3638 25.4346 23.3135 25.7144C23.2632 25.9941 23.1187 26.2568 22.896 26.4729C20.3393 28.9801 17.0104 30.8824 13.2539 31.9832C9.49744 33.084 5.44977 33.3431 1.52982 32.7338C1.25055 32.6924 0.986493 32.5993 0.757937 32.4616C0.529381 32.3239 0.342271 32.1452 0.211048 31.9392C0.0797707 31.7333 0.00776927 31.5055 0.000602599 31.2733C-0.00661962 31.041 0.051159 30.8105 0.169548 30.5994L3.53566 24.5667C3.6981 24.277 3.96721 24.0362 4.30533 23.8781C4.64338 23.7199 5.03349 23.6523 5.42088 23.6847C7.72121 23.8762 10.0451 23.6938 12.2591 23.148C14.473 22.6021 16.5334 21.7036 18.3218 20.5041C18.5456 20.3562 18.8083 20.2529 19.0893 20.2023C19.3702 20.1516 19.6616 20.1551 19.9406 20.2124C20.2196 20.2696 20.4785 20.3791 20.697 20.5322C20.9155 20.6854 21.0875 20.878 21.1996 21.0948C21.8599 22.3608 22.5203 23.6257 23.1807 24.8895Z"
        fill="#FFB956" />
    <path
        d="M26.256 36.6706C26.3473 36.8579 26.3923 37.0581 26.3887 37.2597C26.385 37.4614 26.3326 37.6604 26.2346 37.8454C26.1366 38.0304 25.9948 38.1976 25.8174 38.3374C25.6401 38.4773 25.4307 38.587 25.2014 38.6602C17.5169 41.1094 8.99189 41.1134 1.30395 38.6716C1.06689 38.5966 0.851001 38.4826 0.669612 38.3368C0.488278 38.191 0.345166 38.0163 0.249222 37.8235C0.153222 37.6307 0.106333 37.4239 0.111499 37.2157C0.116611 37.0075 0.173667 36.8024 0.279056 36.613L1.07206 35.1805C1.2355 34.8859 1.50894 34.6415 1.853 34.4826C2.197 34.3236 2.59378 34.2584 2.986 34.2961C6.08055 34.6059 9.22 34.3821 12.2027 33.6391C15.1854 32.8961 17.9456 31.6502 20.3059 29.9816C20.5303 29.8233 20.7976 29.711 21.0854 29.654C21.3733 29.5969 21.6737 29.5969 21.9616 29.6537C22.2495 29.7106 22.5168 29.8229 22.7413 29.9811C22.9658 30.1394 23.1411 30.3391 23.2527 30.5639C24.2644 32.5962 25.2655 34.6318 26.256 36.6706Z"
        fill="#FFB956" />
    <path
        d="M15.4444 42.3874V46.7221C15.4444 46.9285 15.3763 47.1263 15.2551 47.2722C15.1339 47.4181 14.9694 47.5 14.798 47.5H11.6464C11.475 47.5 11.3106 47.4181 11.1893 47.2722C11.0681 47.1263 11 46.9285 11 46.7221V42.3845C10.9998 42.2792 11.0176 42.175 11.0521 42.0783C11.0867 41.9816 11.1373 41.8944 11.2009 41.8221C11.2644 41.7498 11.3396 41.6939 11.4218 41.6579C11.504 41.6218 11.5914 41.6064 11.6788 41.6124C12.2687 41.6532 12.8764 41.6727 13.5018 41.6659C13.9328 41.6614 14.3546 41.6445 14.7673 41.6154C14.8545 41.6095 14.9417 41.6252 15.0237 41.6614C15.1057 41.6975 15.1807 41.7535 15.2441 41.8258C15.3075 41.8981 15.358 41.9851 15.3924 42.0817C15.4269 42.1783 15.4446 42.2823 15.4444 42.3874Z"
        fill="#FFB956" />
</svg>